<svg width="70" height="70" viewBox="0 0 70 70" fill="none" xmlns="http://www.w3.org/2000/svg">
<path d="M13.7315 46.5501L27.5056 38.8264L27.7372 38.1556L27.5056 37.7824H26.8344L24.5324 37.6407L16.6622 37.4281L9.83658 37.1447L3.22371 36.7904L1.55986 36.4361L0 34.3812L0.160715 33.3561L1.55986 32.416L3.56405 32.5908L14.6391 33.3513L19.4605 33.6348L26.6027 34.3764H27.7372L27.8979 33.9182L27.5103 33.6348L27.2078 33.3513L20.3302 28.6935L12.8854 23.7711L8.98575 20.9367L6.87757 19.5006L5.81403 18.1543L5.35553 15.216L7.2699 13.1091L9.84131 13.2838L10.4983 13.4586L13.1028 15.4616L18.6663 19.7651L25.9315 25.1127L26.9951 25.9961L27.4205 25.6938L27.4725 25.4812L26.9951 24.6828L23.0434 17.5449L18.8271 10.2841L16.9505 7.27493L16.4542 5.47037C16.2793 4.7287 16.1517 4.10514 16.1517 3.34458L18.3307 0.387365L19.5361 0L22.4431 0.387365L23.6674 1.45026L25.473 5.57902L28.3989 12.0792L32.9367 20.9178L34.265 23.5396L34.974 25.9677L35.2387 26.7094H35.6972V26.2843L36.0706 21.3052L36.7607 15.1923L37.432 7.3269L37.6636 5.11135L38.7602 2.45647L40.9393 1.02038L42.641 1.8329L44.0401 3.83587L43.8463 5.13024L43.0144 10.5345L41.3836 18.9999L40.3201 24.6686H40.9393L41.6483 23.9601L44.5175 20.1525L49.3389 14.1294L51.466 11.7391L53.9476 9.09839L55.5405 7.84182H58.5516L60.7685 11.1344L59.7758 14.5357L56.675 18.4661L54.1036 21.7965L50.4166 26.7567L48.1147 30.7248L48.3274 31.0413L48.8757 30.9893L57.2044 29.2178L61.7044 28.4053L67.0741 27.4841L69.5037 28.6179L69.7684 29.7705L68.8136 32.1278L63.0704 33.545L56.3347 34.8914L46.3043 37.2628L46.1814 37.3525L46.3232 37.5273L50.8421 37.9525L52.7753 38.0564H57.5069L66.3178 38.7131L68.6198 40.2342L70 42.0954L69.7684 43.5126L66.2232 45.3172L50.2748 41.5286L46.4461 40.5743H45.9167V40.8908L49.1073 44.0086L54.9544 49.2853L62.2763 56.0879L62.6497 57.7696L61.7091 59.097L60.7164 58.9553L54.2832 54.118L51.8016 51.9402L46.1814 47.2115H45.8079V47.7075L47.1031 49.6018L53.9429 59.8765L54.2974 63.0274L53.8011 64.0525L52.0285 64.6713L50.081 64.317L46.0774 58.7002L41.9461 52.3748L38.6137 46.706L38.2072 46.9375L36.2408 68.1057L35.3191 69.1875L33.192 70L31.4194 68.6537L30.4788 66.4759L31.4194 62.1724L32.5538 56.5555L33.4756 52.0914L34.3075 46.5454L34.8038 44.7031L34.7707 44.5802L34.3642 44.6322L30.181 50.3718L23.8186 58.9648L18.7845 64.3501L17.5792 64.8272L15.4899 63.7455L15.6837 61.8133L16.8512 60.0938L23.8186 51.2363L28.0208 45.7471L30.734 42.5773L30.7151 42.119H30.5544L12.0488 54.1274L8.75414 54.5526L7.33608 53.2251L7.51097 51.0474L8.18219 50.3388L13.7457 46.5123L13.7268 46.5312L13.7315 46.5501Z" fill="#D97757"/>
</svg>
