<svg width="87" height="73" viewBox="0 0 87 73" fill="none" xmlns="http://www.w3.org/2000/svg">
<path d="M1.5 71.5C3.97059 71.5 7.67647 66.2919 12 65.5478C14.4706 65.5478 16.3235 70.756 22.5 71.5C26.8235 71.5 28.6765 66.2919 33 66.2919C37.3235 66.2919 39.1765 71.5 43.5 71.5C47.8235 71.5 49.6765 66.2919 54 66.2919C58.3235 66.2919 60.1765 71.5 64.5 71.5C68.8235 71.5 70.6765 66.2919 75 66.2919C79.3235 66.2919 81.1765 71.5 85.5 71.5M9.94941 66.3167L7.12059 60.8853L80.0029 56.1732C74.2712 61.4061 66.9088 65.647 59.46 69.1191M36.1376 10.2919C48.54 14.0988 65.8835 32.4885 71.7882 52.2546C68.5518 50.9774 66.1306 49.6754 61.5847 50.841C57.1871 34.7826 49.3182 19.4433 36.1376 10.2919ZM13.0747 1.5C28.9606 8.32019 50.7512 27.3051 54.7535 52.5895C36.4341 45.174 22.4876 49.1298 12.7782 55.1439C27.5894 36.2458 20.9435 14.756 13.0747 1.5Z" stroke="black" stroke-width="3" stroke-linecap="round" stroke-linejoin="round"/>
</svg>
