<svg width="62" height="70" viewBox="0 0 62 70" fill="none" xmlns="http://www.w3.org/2000/svg">
<path d="M1.20851 58.5631C0.550905 58.2617 -0.20126 57.3256 0.0493814 56.6926C0.686944 55.0835 1.68045 53.7818 1.60843 51.9332C1.58509 51.334 1.71035 50.5544 1.72569 49.9068C1.89323 42.8319 4.78749 31.6939 13.9225 32.833C16.0588 33.1116 20.5719 34.7463 22.4019 35.9361C22.5608 35.9575 22.7381 35.977 22.8944 36.0041C22.9996 36.1167 23.2377 36.2022 23.3845 36.262C26.2672 37.4363 29.3997 39.9229 30.7611 42.8017C32.0113 40.761 32.6047 39.5068 34.5213 37.955C35.5229 38.6381 37.3324 40.1696 37.9938 41.1054C39.4547 43.1725 40.6882 46.4243 41.5965 48.8107C41.4156 49.242 41.4539 49.7244 41.3177 50.1317C38.8689 57.4587 34.2468 64.2343 26.9651 67.3879C25.4747 68.0337 24.062 68.5977 22.4958 69.018C18.312 70.0916 12.9948 70.5199 8.87586 69.0778C8.61122 68.9853 8.1721 68.7998 7.94875 68.6451C9.00529 68.0769 9.89308 67.529 9.58148 66.109C9.5563 66.0277 9.52965 65.9463 9.50159 65.8662C9.11817 64.7717 8.74299 64.5541 7.76824 64.0839C8.37563 63.1989 10.0205 61.8529 10.8479 61.0289C12.5052 59.3784 14.6594 57.5714 16.1004 55.7398C18.7443 52.3795 21.4756 47.8333 22.4239 43.6329C22.6746 42.5226 22.5963 40.6731 22.4939 39.5815C22.4209 39.4284 22.3959 39.3079 22.2215 39.2573C21.2389 38.9719 19.8005 39.2882 18.9211 39.7338C14.1451 42.1936 12.0411 47.6265 9.58184 52.0842C8.99335 53.1508 8.5938 54.3858 7.8989 55.3842C6.51124 57.3779 3.79311 60.3614 1.20851 58.5631Z" fill="#FEA322"/>
<path d="M1.20851 58.5631C0.550905 58.2617 -0.20126 57.3256 0.0493814 56.6926C0.686944 55.0835 1.68045 53.7818 1.60843 51.9332C1.58509 51.334 1.71035 50.5544 1.72569 49.9068C1.89323 42.8319 4.78749 31.6939 13.9225 32.833C16.0588 33.1116 20.5719 34.7463 22.4019 35.9361C17.6895 37.1936 14.0825 39.9188 11.6413 44.1411C9.57631 47.713 7.78178 53.8817 4.96351 56.6371C4.07745 57.5006 2.98272 58.1181 1.78657 58.43C1.59552 58.4811 1.40271 58.5255 1.20851 58.5631Z" fill="#FEE4B4"/>
<path d="M22.4939 39.5815L22.535 39.4594C22.9565 39.3818 23.6847 39.9306 24.0285 40.169C26.1875 41.666 28.8017 44.4915 29.3043 47.1635C29.8489 50.0589 27.9904 53.8145 26.3766 56.1324C23.4835 60.2875 18.4203 63.883 13.5029 65.1377C12.7109 65.3399 10.0631 65.706 9.6 66.0936C9.59391 66.0992 9.58763 66.1035 9.58148 66.109C9.5563 66.0277 9.52965 65.9463 9.50159 65.8662C9.11817 64.7717 8.74299 64.5541 7.76824 64.0839C8.37563 63.1989 10.0205 61.8529 10.8479 61.0289C12.5052 59.3784 14.6594 57.5714 16.1004 55.7398C18.7443 52.3795 21.4756 47.8333 22.4239 43.6329C22.6746 42.5226 22.5963 40.6731 22.4939 39.5815Z" fill="#FEB803"/>
<path d="M24.6504 0.0560725C28.6845 -0.435302 31.6474 2.37847 33.6457 5.5325C38.928 13.8698 42.0202 24.157 42.1791 33.9891C42.1455 34.3189 42.1135 34.4757 42.0314 34.7976C42.5561 34.7914 44.2515 34.746 44.7017 34.8426C42.105 34.9428 39.9666 34.7179 37.5565 36.0455C37.3138 36.1792 36.6278 36.4583 36.4936 36.6619C35.7607 36.923 35.1303 37.4718 34.5213 37.955C32.6047 39.5068 32.0113 40.761 30.7611 42.8017C29.3997 39.9229 26.2672 37.4363 23.3845 36.262C23.2377 36.2022 22.9996 36.1167 22.8944 36.0041C22.9107 35.8251 22.8258 35.3507 22.8184 35.1289C22.7863 34.1724 22.6886 33.2497 22.5822 32.2987C22.2072 28.4892 21.7597 25.2306 21.1383 21.4397C20.9099 20.0241 20.6576 18.6126 20.3816 17.2057C19.6201 13.3673 18.0206 6.60079 20.0682 3.02447C20.974 1.44262 22.9239 0.484215 24.6504 0.0560725Z" fill="#FEE4B4"/>
<path d="M24.6504 0.0560725C28.6845 -0.435302 31.6474 2.37847 33.6457 5.5325C38.928 13.8698 42.0202 24.157 42.1791 33.9891C42.1455 34.3189 42.1135 34.4757 42.0314 34.7976C42.5561 34.7914 44.2515 34.746 44.7017 34.8426C42.105 34.9428 39.9666 34.7179 37.5565 36.0455C37.3138 36.1792 36.6278 36.4583 36.4936 36.6619C35.7607 36.923 35.1303 37.4718 34.5213 37.955C32.6047 39.5068 32.0113 40.761 30.7611 42.8017C29.3997 39.9229 26.2672 37.4363 23.3845 36.262C23.2377 36.2022 22.9996 36.1167 22.8944 36.0041C22.9107 35.8251 22.8258 35.3507 22.8184 35.1289C22.7863 34.1724 22.6886 33.2497 22.5822 32.2987C23.6459 32.622 24.4079 32.6646 25.4656 32.8167C28.8895 33.3091 32.3799 32.5218 35.62 31.4394C36.3222 31.2048 37.0115 30.7093 37.7523 30.4503C37.6942 28.2425 37.1225 25.106 36.7283 22.935C35.4075 15.6596 33.1628 8.95505 28.1606 3.34298C27.5365 2.64274 25.7014 0.86552 24.9559 0.0761029C24.8382 0.0683992 24.7364 0.0617424 24.6504 0.0560725Z" fill="#FEE369"/>
<path d="M42.1791 33.9891C47.9214 31.4513 53.3282 34.5995 55.7349 40.0092C56.3898 41.4072 56.6519 42.9138 57.0472 44.3741C57.6857 46.7326 58.6542 49.4086 60.48 51.1195C61.49 52.0659 63.084 53.5976 60.925 54.5688C59.3143 55.293 56.2252 54.6841 54.823 53.6381C54.8554 54.6576 55.4368 57.1117 55.8875 58.0947C56.7958 60.0755 58.4838 61.2711 56.2289 63.1588C54.8904 64.0783 53.6749 64.0611 52.1835 63.5489C47.4002 61.8923 44.9345 56.6353 43.0409 52.314C42.5995 51.3066 42.117 49.7368 41.6272 48.8643L41.5965 48.8107C40.6882 46.4243 39.4547 43.1725 37.9938 41.1054C37.3324 40.1696 35.5229 38.6381 34.5213 37.955C35.1303 37.4718 35.7607 36.923 36.4936 36.6619C36.6278 36.4583 37.3138 36.1792 37.5565 36.0455C39.9666 34.7179 42.105 34.9428 44.7017 34.8426C44.2515 34.746 42.5561 34.7914 42.0314 34.7976C42.1135 34.4757 42.1455 34.3189 42.1791 33.9891Z" fill="#FEE4B4"/>
<path d="M42.1791 33.9891C47.9214 31.4513 53.3282 34.5995 55.7349 40.0092C56.3898 41.4072 56.6519 42.9138 57.0472 44.3741C57.6857 46.7326 58.6542 49.4086 60.48 51.1195C61.49 52.0659 63.084 53.5976 60.925 54.5688C59.3143 55.293 56.2252 54.6841 54.823 53.6381C54.522 52.5462 54.4269 51.5548 54.2745 50.4438C53.7757 46.8124 53.7572 43.2887 51.9779 39.9658C50.2471 36.7334 48.5074 34.9209 44.7017 34.8426C44.2515 34.746 42.5561 34.7914 42.0314 34.7976C42.1135 34.4757 42.1455 34.3189 42.1791 33.9891Z" fill="#FEA322"/>
<path d="M36.4936 36.6619C40.6942 37.9275 42.2447 43.4761 43.7171 47.1905C45.8414 52.5491 47.5929 60.7183 53.5776 62.9912C54.5172 63.348 55.7628 62.9899 56.2289 63.1588C54.8904 64.0783 53.6749 64.0611 52.1835 63.5489C47.4002 61.8923 44.9345 56.6353 43.0409 52.314C42.5995 51.3066 42.117 49.7368 41.6272 48.8643L41.5965 48.8107C40.6882 46.4243 39.4547 43.1725 37.9938 41.1054C37.3324 40.1696 35.5229 38.6381 34.5213 37.955C35.1303 37.4718 35.7607 36.923 36.4936 36.6619Z" fill="#FEB803"/>
<path d="M7.94875 68.6451C7.42716 68.5342 6.98656 68.4534 6.53752 68.1132C5.12224 67.0396 5.08039 64.6829 7.01111 64.1677C7.20547 64.1153 7.54612 64.1128 7.76824 64.0839C8.74299 64.5541 9.11817 64.7717 9.50159 65.8662C9.52965 65.9463 9.5563 66.0277 9.58148 66.109C9.89308 67.529 9.00529 68.0769 7.94875 68.6451Z" fill="#8D6059"/>
</svg>
