<svg width="109" height="32" viewBox="0 0 109 32" fill="none" xmlns="http://www.w3.org/2000/svg">
<path d="M34.7902 6.22317H31.6839V12.533H34.7902V6.22317Z" fill="white"/>
<path d="M44.3359 12.533C44.3359 16.0133 41.4991 18.8428 38.0099 18.8428C34.5207 18.8428 31.6839 16.0133 31.6839 12.533H34.7902C34.7902 14.3156 36.2227 15.7445 38.0099 15.7445C39.7971 15.7445 41.2296 14.3156 41.2296 12.533H44.3359Z" fill="white"/>
<path d="M44.3359 6.22317H41.2296V12.533H44.3359V6.22317Z" fill="white"/>
<path d="M54.2362 12.533C54.2362 10.7504 52.8037 9.32148 51.0165 9.32148C49.2293 9.32148 47.7968 10.7504 47.7968 12.533C47.7968 14.3156 49.2293 15.7445 51.0165 15.7445H52.8037V18.8428H51.0165C47.5273 18.8428 44.6905 16.0133 44.6905 12.533C44.6905 9.05267 47.5273 6.22317 51.0165 6.22317C54.5057 6.22317 57.3425 9.05267 57.3425 12.533V18.8428H54.2362V12.533Z" fill="white"/>
<path d="M67.257 12.533C67.257 10.7504 65.8244 9.32148 64.0372 9.32148C62.2501 9.32148 60.8175 10.7504 60.8175 12.533H57.7113C57.7113 9.05267 60.548 6.22317 64.0372 6.22317C67.5265 6.22317 70.3632 9.05267 70.3632 12.533H67.257Z" fill="white"/>
<path d="M60.8175 12.533H57.7113V18.8428H60.8175V12.533Z" fill="white"/>
<path d="M70.3632 12.533H67.257V18.8428H70.3632V12.533Z" fill="white"/>
<path d="M72.6043 9.30733H70.7178V6.20901H72.6043V2.16281H75.7105V6.20901H77.7388V9.30733H75.7105V13.2404C75.7105 15.0229 76.2353 15.7445 77.7105 15.7445V18.8428C74.3489 18.8428 72.6043 17.2724 72.6043 13.2545V9.30733Z" fill="white"/>
<path d="M81.1997 6.22317H78.0934V12.533H81.1997V6.22317Z" fill="white"/>
<path d="M90.7454 12.533C90.7454 16.0133 87.9086 18.8428 84.4194 18.8428C80.9302 18.8428 78.0934 16.0133 78.0934 12.533H81.1997C81.1997 14.3156 82.6323 15.7445 84.4194 15.7445C86.2066 15.7445 87.6392 14.3156 87.6392 12.533H90.7454Z" fill="white"/>
<path d="M90.7454 6.22317H87.6391L87.6392 12.533H90.7454L90.7454 6.22317Z" fill="white"/>
<path d="M98.504 11.8114C98.504 10.0289 97.5536 9.30733 96.3622 9.30733C95.1708 9.30733 94.2205 10.0147 94.2205 11.8114H91.1142C91.1142 8.33115 93.4829 6.22317 96.3622 6.22317C99.2415 6.22317 101.61 8.34529 101.61 11.8114H98.504Z" fill="white"/>
<path d="M94.2063 11.8114H91.1V18.8286H94.2063V11.8114Z" fill="white"/>
<path d="M105.894 11.8114C105.894 10.0289 104.943 9.30733 103.752 9.30733C102.561 9.30733 101.61 10.0147 101.61 11.8114H98.504C98.504 8.33115 100.873 6.22317 103.752 6.22317C106.631 6.22317 109 8.34529 109 11.8114H105.894Z" fill="white"/>
<path d="M101.61 11.8114H98.504V18.8286H101.61V11.8114Z" fill="white"/>
<path d="M109 11.8114H105.894L105.894 18.8286H109V11.8114Z" fill="white"/>
<path d="M33.0739 29.5949L35.9533 21.4318H37.556L40.4353 29.5949H39.0453L38.4212 27.7699H35.088L34.4498 29.5949H33.0597H33.0739ZM35.4568 26.6098H38.0099L36.5632 22.3372H36.9319L35.4568 26.6098Z" fill="#99ED43"/>
<path d="M43.0594 29.7222C42.4636 29.7222 41.9388 29.5808 41.4849 29.312C41.0311 29.0432 40.6623 28.6612 40.3928 28.1943C40.1233 27.7274 39.9956 27.204 39.9956 26.6098C39.9956 26.0156 40.1233 25.5063 40.3928 25.0253C40.6623 24.5584 41.0169 24.1905 41.4849 23.9217C41.953 23.6529 42.4778 23.5256 43.0735 23.5256C43.4707 23.5256 43.8536 23.5964 44.2082 23.7378C44.5628 23.8793 44.8607 24.0774 45.1302 24.3179C45.3855 24.5725 45.5841 24.8555 45.7117 25.1809L44.6196 25.6902C44.4919 25.3789 44.2933 25.1384 44.0238 24.9545C43.7544 24.7706 43.4423 24.6716 43.0877 24.6716C42.7331 24.6716 42.4495 24.7565 42.18 24.9121C41.9105 25.0818 41.6977 25.3082 41.5417 25.6053C41.3857 25.9024 41.3147 26.2419 41.3147 26.6098C41.3147 26.9776 41.3857 27.3172 41.5417 27.6143C41.6977 27.9114 41.9105 28.1377 42.18 28.3075C42.4495 28.4773 42.7473 28.5621 43.0877 28.5621C43.4423 28.5621 43.7544 28.4631 44.0238 28.2792C44.2933 28.0953 44.4919 27.8406 44.6196 27.5294L45.7117 28.0387C45.5983 28.3499 45.3997 28.6329 45.1444 28.8875C44.8891 29.1422 44.577 29.3403 44.2224 29.4817C43.8678 29.6232 43.4849 29.6939 43.0735 29.6939L43.0594 29.7222Z" fill="#99ED43"/>
<path d="M47.7826 29.7222C47.3854 29.7222 47.0308 29.6515 46.7188 29.51C46.4209 29.3686 46.1798 29.1705 46.0096 28.9158C45.8394 28.6612 45.7543 28.3641 45.7543 28.0245C45.7543 27.6991 45.8252 27.4162 45.967 27.1615C46.1089 26.9069 46.3358 26.6947 46.6337 26.5107C46.9315 26.341 47.3145 26.2136 47.7684 26.1429L49.8392 25.8034V26.7796L48.0095 27.0908C47.6833 27.1474 47.4422 27.2464 47.2861 27.402C47.1301 27.5577 47.0592 27.7416 47.0592 27.9821C47.0592 28.2226 47.1443 28.3924 47.3145 28.5338C47.4847 28.6753 47.7117 28.7461 47.9811 28.7461C48.3216 28.7461 48.6194 28.6753 48.8605 28.5338C49.1159 28.3924 49.3144 28.1943 49.4421 27.9538C49.5839 27.7133 49.6548 27.4303 49.6548 27.1332V25.6053C49.6548 25.3082 49.5414 25.0677 49.3286 24.8838C49.1159 24.6999 48.818 24.6008 48.4634 24.6008C48.1372 24.6008 47.8393 24.6857 47.5982 24.8555C47.3571 25.0253 47.1727 25.2516 47.0592 25.5204L46.0238 25.0111C46.1372 24.714 46.3075 24.4594 46.5628 24.233C46.8181 24.0066 47.1017 23.8369 47.4422 23.7095C47.7684 23.5822 48.123 23.5256 48.5059 23.5256C48.974 23.5256 49.3853 23.6105 49.7541 23.7944C50.1229 23.9642 50.3924 24.2188 50.6052 24.5301C50.8037 24.8413 50.903 25.195 50.903 25.6053V29.5949H49.7116V28.5197L49.9669 28.548C49.825 28.7885 49.6548 29.0007 49.4279 29.1705C49.2151 29.3403 48.9598 29.4817 48.6903 29.5808C48.4208 29.6798 48.1088 29.7222 47.7684 29.7222H47.7826Z" fill="#99ED43"/>
<path d="M54.2788 29.7222C53.7114 29.7222 53.2008 29.5808 52.7469 29.312C52.293 29.0432 51.9384 28.6612 51.6831 28.1943C51.4278 27.7274 51.286 27.204 51.286 26.6098C51.286 26.0156 51.4136 25.5063 51.6831 25.0253C51.9526 24.5584 52.3072 24.1905 52.7469 23.9217C53.1866 23.6529 53.6972 23.5115 54.2646 23.5115C54.7468 23.5115 55.1582 23.6105 55.5269 23.7944C55.8957 23.9783 56.1794 24.2471 56.3922 24.5867L56.2078 24.8696V21.2762H57.4418V29.5666H56.2645V28.3641L56.4063 28.5904C56.2078 28.9441 55.9099 29.2271 55.5269 29.411C55.144 29.5949 54.7326 29.6939 54.2788 29.6939V29.7222ZM54.4064 28.5763C54.7468 28.5763 55.0589 28.4914 55.3284 28.3216C55.5979 28.1519 55.8248 27.9255 55.9808 27.6284C56.1368 27.3313 56.222 26.9918 56.222 26.6239C56.222 26.2561 56.1368 25.9165 55.9808 25.6336C55.8248 25.3365 55.612 25.1101 55.3284 24.9404C55.0589 24.7706 54.7468 24.6857 54.4064 24.6857C54.066 24.6857 53.754 24.7706 53.4703 24.9404C53.1866 25.1101 52.9739 25.3365 52.8178 25.6336C52.6618 25.9307 52.5909 26.2561 52.5909 26.6239C52.5909 26.9918 52.6618 27.3313 52.8178 27.6284C52.9739 27.9255 53.1866 28.1519 53.4561 28.3216C53.7256 28.4914 54.0376 28.5763 54.3922 28.5763H54.4064Z" fill="#99ED43"/>
<path d="M60.8601 29.7222C60.2643 29.7222 59.7395 29.5808 59.2857 29.312C58.8318 29.0432 58.4772 28.6612 58.2077 28.1943C57.9524 27.7274 57.8247 27.1898 57.8247 26.6098C57.8247 26.0297 57.9524 25.478 58.2077 25.0253C58.463 24.5584 58.8176 24.2047 59.2573 23.9359C59.697 23.6671 60.1934 23.5398 60.7466 23.5398C61.1863 23.5398 61.5976 23.6105 61.938 23.7661C62.2926 23.9217 62.5905 24.134 62.8316 24.4028C63.0727 24.6716 63.2571 24.9687 63.3848 25.3224C63.5124 25.6619 63.5834 26.0297 63.5834 26.4117C63.5834 26.5107 63.5834 26.6098 63.5834 26.7088C63.5834 26.8078 63.555 26.9069 63.5408 26.9918H58.8034V26.0014H62.8316L62.2359 26.4542C62.3068 26.1005 62.2785 25.7751 62.165 25.4921C62.0373 25.2092 61.8671 24.9828 61.6118 24.8272C61.3707 24.6574 61.0728 24.5867 60.7466 24.5867C60.4204 24.5867 60.1225 24.6716 59.8672 24.8272C59.6119 24.997 59.4133 25.2233 59.2715 25.5346C59.1296 25.8317 59.0729 26.1995 59.1013 26.6381C59.0587 27.0342 59.1155 27.3879 59.2715 27.685C59.4275 27.9821 59.6403 28.2226 59.9098 28.3924C60.1792 28.5621 60.4913 28.647 60.8459 28.647C61.2005 28.647 61.5125 28.5621 61.7678 28.4065C62.0231 28.2509 62.2217 28.0387 62.3636 27.784L63.3706 28.2792C63.2571 28.5621 63.0727 28.8027 62.8316 29.029C62.5905 29.2554 62.2926 29.4251 61.9522 29.5525C61.6118 29.6798 61.243 29.7505 60.8317 29.7505L60.8601 29.7222Z" fill="#99ED43"/>
<path d="M63.9805 29.5949V23.6671H65.172V24.9545L65.0159 24.7565C65.1436 24.3603 65.3705 24.0491 65.6968 23.851C66.023 23.6529 66.4059 23.5398 66.8315 23.5398C67.3137 23.5398 67.725 23.6671 68.0938 23.9217C68.4626 24.1764 68.7037 24.5018 68.8314 24.9262L68.4768 24.9545C68.647 24.4735 68.9165 24.1198 69.2853 23.8935C69.654 23.6529 70.0654 23.5398 70.5334 23.5398C70.9448 23.5398 71.3136 23.6388 71.654 23.8227C71.9802 24.0066 72.2497 24.2754 72.4483 24.615C72.6468 24.9545 72.7461 25.3365 72.7461 25.7609V29.5949H71.4979V26.1005C71.4979 25.8034 71.4412 25.5487 71.3419 25.3365C71.2426 25.1243 71.0866 24.9687 70.9022 24.8555C70.7178 24.7423 70.4909 24.6857 70.2498 24.6857C70.0086 24.6857 69.7817 24.7423 69.5973 24.8555C69.4129 24.9687 69.2569 25.1243 69.1434 25.3365C69.03 25.5487 68.9732 25.8034 68.9732 26.0863V29.5808H67.7392V26.0863C67.7392 25.7892 67.6825 25.5346 67.5832 25.3224C67.4839 25.1101 67.3279 24.9545 67.1435 24.8413C66.9591 24.7282 66.7322 24.6716 66.4769 24.6716C66.2216 24.6716 66.0088 24.7282 65.8244 24.8413C65.64 24.9545 65.484 25.1101 65.3847 25.3224C65.2854 25.5346 65.2287 25.7892 65.2287 26.0722V29.5666H63.9805V29.5949Z" fill="#99ED43"/>
<path d="M73.6681 32C73.5262 32 73.3702 32 73.2284 31.9576C73.0865 31.9293 72.9589 31.8868 72.8454 31.8444V30.7833C72.9305 30.8116 73.044 30.8258 73.1574 30.8399C73.2851 30.854 73.3986 30.8682 73.5262 30.8682C73.8666 30.8682 74.1219 30.7975 74.2922 30.6418C74.4624 30.4862 74.6042 30.2598 74.7319 29.9628L75.129 29.0573L75.1006 30.1042L72.5334 23.6671H73.8666L75.7673 28.6046H75.3134L77.1998 23.6671H78.5331L75.9091 30.2457C75.7673 30.5994 75.5971 30.9106 75.3843 31.1653C75.1716 31.4341 74.9304 31.6322 74.6468 31.7878C74.3631 31.9293 74.0368 32 73.6539 32H73.6681Z" fill="#99ED43"/>
<path d="M27.3153 26.0863C24.4218 23.2002 21.5708 20.3566 18.6348 17.428C20.6489 18.1495 22.5779 18.8428 24.4927 19.536C26.521 16.5084 25.3012 11.005 22.0247 8.23211C18.2235 5.03476 12.5641 5.17624 8.98978 8.57165C5.38709 11.9954 4.93321 17.6685 7.89763 21.5308C10.8337 25.3507 16.7767 27.1615 22.2659 22.9739C23.5424 24.2896 24.8189 25.6477 26.138 26.9776C27.4571 28.3075 28.8046 29.5949 30.1379 30.8965C30.0953 30.9672 30.0528 31.038 30.0102 31.1087C28.7762 30.6701 27.4997 30.3164 26.3082 29.7647C24.8331 29.0856 23.5991 29.1705 22.0389 29.8354C16.1243 32.382 10.4507 31.6605 5.54311 27.4586C0.678054 23.2993 -1.03819 17.8383 0.607135 11.6558C2.23828 5.50163 6.42251 1.69594 12.635 0.337773C19.0603 -1.06283 25.7693 1.99304 29.1308 7.63791C32.5349 13.3535 31.996 20.4839 27.755 25.577C27.599 25.7609 27.4288 25.9448 27.3295 26.058L27.3153 26.0863Z" fill="white"/>
</svg>
