<svg width="95" height="94" viewBox="0 0 95 94" fill="none" xmlns="http://www.w3.org/2000/svg">
<path d="M20.6963 15.694C20.4104 15.5825 20.101 15.5994 19.8252 15.7413C17.3433 17.1334 14.8714 18.5524 12.4097 19.9986C12.2785 20.0932 12.1709 20.2249 12.0902 20.377C12.0095 20.529 11.9557 20.7013 11.9389 20.8838C11.9153 30.5572 11.9153 40.2305 11.9389 49.9039L12.5207 49.4714C12.5207 49.4714 12.5308 30.9694 12.5308 21.8231V21.3872C12.5308 21.2994 12.5476 21.2115 12.5846 21.1304C12.6182 21.0527 12.672 20.9852 12.7325 20.9345C12.7931 20.8838 12.8671 20.8534 12.941 20.8432C13.015 20.8331 13.0924 20.8432 13.163 20.877L25.8619 26.7797C27.2341 27.3575 27.4257 28.0839 27.4964 28.8306C27.4728 42.7207 27.4964 70.5008 27.4964 70.5008L28.0647 69.8656C28.0647 69.8656 28.0849 42.6903 28.0647 28.7698C28.0647 27.9184 28.2934 27.523 28.929 27.175C31.3034 25.8708 36.0755 23.1036 36.0755 23.1036C36.0755 23.1036 25.7308 18.0727 20.6996 15.7042L20.6963 15.694Z" fill="white"/>
<path d="M94.9997 30.5707C95.0199 27.6244 94.0547 25.4383 92.242 23.6273C90.4797 21.8738 88.472 20.6067 86.3633 19.5695C78.477 15.6906 70.6074 14.356 62.7883 15.3967C62.8018 12.5112 61.8231 10.3657 60.0272 8.56824C58.265 6.81467 56.2572 5.54763 54.1486 4.51035C41.0529 -1.91941 28.0244 -1.34502 15.1909 5.40573C10.2237 8.02426 5.48851 11.2408 0.628892 14.1466C0.114344 14.4506 0 14.8054 0 15.4237C0.0168153 21.4717 0.0100892 34.4461 0.0100892 34.4461L0.618803 33.642C0.618803 33.642 0.632255 21.8298 0.632255 15.9373V15.64C0.635618 15.5521 0.655796 15.4677 0.69279 15.3933C0.729784 15.319 0.78023 15.2548 0.840765 15.2075C0.9013 15.1602 0.971924 15.1298 1.04591 15.123C1.1199 15.1129 1.19389 15.1264 1.26115 15.1568C3.11756 16.0184 4.88652 16.8631 6.68576 17.6402C7.34156 17.924 7.58706 18.2754 7.5837 19.1505C7.56352 27.2764 7.56352 35.3989 7.56352 43.5214V44.6635L8.19241 44.0181C8.19241 44.0181 8.19914 27.1345 8.1756 18.9207C8.1756 18.2247 8.36393 17.8936 8.87175 17.5861C11.9893 15.6974 15.1001 13.7817 18.2009 11.8389C22.63 9.06154 27.2038 6.84845 32.2988 6.50382C37.8748 6.13216 43.1346 7.46676 48.011 10.6969C48.9325 11.3422 49.7531 12.1666 50.4392 13.1397C51.2766 14.2783 51.2698 15.6738 50.5972 16.9509C50.2273 17.6469 49.7733 18.3531 49.215 18.8261C48.3204 19.5728 47.4225 20.3195 46.4775 20.9716C41.8499 23.4888 37.4039 26.4824 32.8537 29.2023C32.504 29.4118 32.3358 29.6449 32.2686 29.9659C32.2686 29.9659 32.2686 29.9726 32.2686 29.976C32.208 30.2058 32.1811 30.4457 32.1878 30.6856C32.2114 46.0927 32.2215 93.8345 32.2215 93.8345L32.8066 94C32.8066 94 32.8167 58.5704 32.8167 49.3903C32.9109 49.2045 32.8436 48.897 32.8436 48.6707C32.8537 42.7815 32.8537 36.8889 32.8436 30.9964V30.7937C32.8436 30.7058 32.8672 30.618 32.9042 30.5403C32.9412 30.4626 32.995 30.3984 33.0589 30.3511C33.1228 30.3038 33.1934 30.2733 33.2707 30.2666C33.3447 30.2598 33.4221 30.2733 33.4893 30.3071C35.3962 31.2667 37.1954 32.1857 39.0048 33.0574C39.563 33.3244 39.7749 33.6589 39.7715 34.4089C39.748 45.3527 39.7547 67.2437 39.7547 67.2437L40.3533 66.72C40.3533 66.72 40.4038 42.2105 40.3769 34.0001C40.4408 33.5271 40.6392 33.2162 41.0999 32.9392C44.9271 30.6383 48.7307 28.29 52.5343 25.9384C53.4995 25.3404 54.4614 24.7423 55.3997 24.1037C58.2818 22.5968 59.8322 22.3062 62.1224 21.8535H62.146V33.669L62.7749 33.0912V21.7454C63.3432 21.6609 63.9183 21.5933 64.5001 21.5595C70.0761 21.1879 75.3359 22.5225 80.2123 25.7526C81.1338 26.3979 81.9544 27.2257 82.6404 28.1954C83.4779 29.3341 83.4711 30.7295 82.7985 32.0033C82.4286 32.7027 81.9746 33.4055 81.4163 33.8785C80.1955 34.9428 78.9142 35.9057 77.5824 36.7572C73.4761 39.2879 69.3328 41.7442 65.1862 44.1837C64.5808 44.5418 64.3992 44.9473 64.3992 45.7379C64.4228 61.0707 64.4328 91.7329 64.4328 91.7329L65.018 91.4727C65.018 91.4727 65.0281 61.3646 65.0281 46.3055V45.846C65.0281 45.7548 65.0483 45.6669 65.0853 45.5859C65.1223 45.5048 65.1727 45.4372 65.2366 45.3899C65.3005 45.3392 65.3745 45.3088 65.4485 45.302C65.5258 45.2953 65.6032 45.3088 65.6705 45.3426C67.5908 46.3089 69.4035 47.2313 71.2296 48.1098C71.7879 48.3801 71.9997 48.7112 71.9964 49.4647C71.9695 60.4084 71.9795 82.2994 71.9795 82.2994L72.5782 81.6169C72.5782 81.6169 72.595 60.4693 72.5782 49.4917C72.5782 48.7551 72.7362 48.3497 73.3248 48.0017C77.1519 45.7007 80.9556 43.3525 84.7625 40.9975C88.3106 38.8047 91.8418 36.5747 94.3506 32.3682V45.5723C94.3506 47.7753 94.4112 52.7792 94.4112 52.7792L94.9694 52.4076C94.9694 52.4076 94.9593 37.6728 94.9997 30.5572V30.5707Z" fill="white"/>
<path d="M62.758 35.4158L62.1392 35.1219C59.0688 33.6555 56.0017 32.2026 52.9312 30.7565C52.6453 30.645 52.3359 30.6619 52.0602 30.8038C49.5782 32.1959 47.1064 33.6149 44.6446 35.061C44.5135 35.1556 44.4058 35.2874 44.3218 35.4395C44.2377 35.5915 44.1872 35.7638 44.1704 35.9463C44.1469 45.6196 44.1637 64.9664 44.1637 64.9664L44.7522 64.3109V36.4429C44.7522 36.3551 44.7724 36.2673 44.8094 36.1895C44.8464 36.1118 44.8968 36.0443 44.9574 35.9936C45.0179 35.9429 45.0885 35.9125 45.1625 35.899C45.2365 35.8888 45.3105 35.899 45.3811 35.926C45.4786 35.9699 45.5728 36.0105 45.6636 36.0544C50.0558 38.1458 54.4412 40.2609 58.8434 42.3118C59.516 42.6261 59.7145 43.0248 59.7145 43.8694C59.6909 57.7595 59.7145 85.5396 59.7145 85.5396L60.2862 84.7017C60.2862 84.7017 60.3064 57.7291 60.2795 43.8086C60.2795 42.9572 60.5082 42.5619 61.1471 42.2139C63.5215 40.9097 68.2936 38.1425 68.2936 38.1425C68.2936 38.1425 64.5068 36.2504 62.7614 35.4192L62.758 35.4158Z" fill="white"/>
</svg>
